<!--?xml version="1.0" encoding="us-ascii" standalone="no"?--><svg xmlns="http://www.w3.org/2000/svg" xmlns:xlink="http://www.w3.org/1999/xlink" contentstyletype="text/css" height="646px" preserveAspectRatio="none" style="width:599px;height:646px;background:#FFFFFF;" version="1.1" viewBox="0 0 599 646" width="599px" zoomAndPan="magnify"><defs></defs><g><!--class Company--><g id="elem_Company"><rect codeline="1" fill="#F1F1F1" height="96.8906" id="Company" rx="2.5" ry="2.5" style="stroke:#181818;stroke-width:0.5;" width="209" x="223" y="7"></rect><ellipse cx="290.75" cy="23" fill="#ADD1B2" rx="11" ry="11" style="stroke:#181818;stroke-width:1.0;"></ellipse><path d="M293.7188,28.6406 Q293.1406,28.9375 292.5,29.0781 Q291.8594,29.2344 291.1563,29.2344 Q288.6563,29.2344 287.3281,27.5938 Q286.0156,25.9375 286.0156,22.8125 Q286.0156,19.6875 287.3281,18.0313 Q288.6563,16.375 291.1563,16.375 Q291.8594,16.375 292.5,16.5313 Q293.1563,16.6875 293.7188,16.9844 L293.7188,19.7031 Q293.0938,19.125 292.5,18.8594 Q291.9063,18.5781 291.2813,18.5781 Q289.9375,18.5781 289.25,19.6563 Q288.5625,20.7188 288.5625,22.8125 Q288.5625,24.9063 289.25,25.9844 Q289.9375,27.0469 291.2813,27.0469 Q291.9063,27.0469 292.5,26.7813 Q293.0938,26.5 293.7188,25.9219 L293.7188,28.6406 Z " fill="#000000"></path><text fill="#000000" font-family="sans-serif" font-size="14" lengthAdjust="spacing" textLength="65" x="311.25" y="27.8467">Company</text><line style="stroke:#181818;stroke-width:0.5;" x1="224" x2="431" y1="39" y2="39"></line><ellipse cx="234" cy="52.6484" fill="none" rx="3" ry="3" style="stroke:#038048;stroke-width:1.0;"></ellipse><text fill="#000000" font-family="sans-serif" font-size="14" lengthAdjust="spacing" textLength="88" x="243" y="55.9951">Name: string</text><ellipse cx="234" cy="68.9453" fill="none" rx="3" ry="3" style="stroke:#038048;stroke-width:1.0;"></ellipse><text fill="#000000" font-family="sans-serif" font-size="14" lengthAdjust="spacing" textLength="105" x="243" y="72.292">Address: string</text><ellipse cx="234" cy="85.2422" fill="none" rx="3" ry="3" style="stroke:#038048;stroke-width:1.0;"></ellipse><text fill="#000000" font-family="sans-serif" font-size="14" lengthAdjust="spacing" textLength="183" x="243" y="88.5889">Contact Information: string</text><line style="stroke:#181818;stroke-width:0.5;" x1="224" x2="431" y1="95.8906" y2="95.8906"></line></g><!--class Branch--><g id="elem_Branch"><rect codeline="7" fill="#F1F1F1" height="96.8906" id="Branch" rx="2.5" ry="2.5" style="stroke:#181818;stroke-width:0.5;" width="209" x="223" y="163.89"></rect><ellipse cx="298.75" cy="179.89" fill="#ADD1B2" rx="11" ry="11" style="stroke:#181818;stroke-width:1.0;"></ellipse><path d="M301.7188,185.5306 Q301.1406,185.8275 300.5,185.9681 Q299.8594,186.1244 299.1563,186.1244 Q296.6563,186.1244 295.3281,184.4838 Q294.0156,182.8275 294.0156,179.7025 Q294.0156,176.5775 295.3281,174.9213 Q296.6563,173.265 299.1563,173.265 Q299.8594,173.265 300.5,173.4213 Q301.1563,173.5775 301.7188,173.8744 L301.7188,176.5931 Q301.0938,176.015 300.5,175.7494 Q299.9063,175.4681 299.2813,175.4681 Q297.9375,175.4681 297.25,176.5463 Q296.5625,177.6088 296.5625,179.7025 Q296.5625,181.7963 297.25,182.8744 Q297.9375,183.9369 299.2813,183.9369 Q299.9063,183.9369 300.5,183.6713 Q301.0938,183.39 301.7188,182.8119 L301.7188,185.5306 Z " fill="#000000"></path><text fill="#000000" font-family="sans-serif" font-size="14" lengthAdjust="spacing" textLength="49" x="319.25" y="184.7367">Branch</text><line style="stroke:#181818;stroke-width:0.5;" x1="224" x2="431" y1="195.89" y2="195.89"></line><ellipse cx="234" cy="209.5384" fill="none" rx="3" ry="3" style="stroke:#038048;stroke-width:1.0;"></ellipse><text fill="#000000" font-family="sans-serif" font-size="14" lengthAdjust="spacing" textLength="88" x="243" y="212.8851">Name: string</text><ellipse cx="234" cy="225.8353" fill="none" rx="3" ry="3" style="stroke:#038048;stroke-width:1.0;"></ellipse><text fill="#000000" font-family="sans-serif" font-size="14" lengthAdjust="spacing" textLength="106" x="243" y="229.182">Location: string</text><ellipse cx="234" cy="242.1322" fill="none" rx="3" ry="3" style="stroke:#038048;stroke-width:1.0;"></ellipse><text fill="#000000" font-family="sans-serif" font-size="14" lengthAdjust="spacing" textLength="183" x="243" y="245.4789">Contact Information: string</text><line style="stroke:#181818;stroke-width:0.5;" x1="224" x2="431" y1="252.7806" y2="252.7806"></line></g><!--class Manager--><g id="elem_Manager"><rect codeline="13" fill="#F1F1F1" height="80.5938" id="Manager" rx="2.5" ry="2.5" style="stroke:#181818;stroke-width:0.5;" width="209" x="7" y="353.37"></rect><ellipse cx="77.25" cy="369.37" fill="#ADD1B2" rx="11" ry="11" style="stroke:#181818;stroke-width:1.0;"></ellipse><path d="M80.2188,375.0106 Q79.6406,375.3075 79,375.4481 Q78.3594,375.6044 77.6563,375.6044 Q75.1563,375.6044 73.8281,373.9638 Q72.5156,372.3075 72.5156,369.1825 Q72.5156,366.0575 73.8281,364.4013 Q75.1563,362.745 77.6563,362.745 Q78.3594,362.745 79,362.9013 Q79.6563,363.0575 80.2188,363.3544 L80.2188,366.0731 Q79.5938,365.495 79,365.2294 Q78.4063,364.9481 77.7813,364.9481 Q76.4375,364.9481 75.75,366.0263 Q75.0625,367.0888 75.0625,369.1825 Q75.0625,371.2763 75.75,372.3544 Q76.4375,373.4169 77.7813,373.4169 Q78.4063,373.4169 79,373.1513 Q79.5938,372.87 80.2188,372.2919 L80.2188,375.0106 Z " fill="#000000"></path><text fill="#000000" font-family="sans-serif" font-size="14" lengthAdjust="spacing" textLength="60" x="97.75" y="374.2167">Manager</text><line style="stroke:#181818;stroke-width:0.5;" x1="8" x2="215" y1="385.37" y2="385.37"></line><ellipse cx="18" cy="399.0184" fill="none" rx="3" ry="3" style="stroke:#038048;stroke-width:1.0;"></ellipse><text fill="#000000" font-family="sans-serif" font-size="14" lengthAdjust="spacing" textLength="88" x="27" y="402.3651">Name: string</text><ellipse cx="18" cy="415.3153" fill="none" rx="3" ry="3" style="stroke:#038048;stroke-width:1.0;"></ellipse><text fill="#000000" font-family="sans-serif" font-size="14" lengthAdjust="spacing" textLength="183" x="27" y="418.662">Contact Information: string</text><line style="stroke:#181818;stroke-width:0.5;" x1="8" x2="215" y1="425.9638" y2="425.9638"></line></g><!--class Department--><g id="elem_Department"><rect codeline="18" fill="#F1F1F1" height="80.5938" id="Department" rx="2.5" ry="2.5" style="stroke:#181818;stroke-width:0.5;" width="153" x="251" y="353.37"></rect><ellipse cx="283.1" cy="369.37" fill="#ADD1B2" rx="11" ry="11" style="stroke:#181818;stroke-width:1.0;"></ellipse><path d="M286.0688,375.0106 Q285.4906,375.3075 284.85,375.4481 Q284.2094,375.6044 283.5063,375.6044 Q281.0063,375.6044 279.6781,373.9638 Q278.3656,372.3075 278.3656,369.1825 Q278.3656,366.0575 279.6781,364.4013 Q281.0063,362.745 283.5063,362.745 Q284.2094,362.745 284.85,362.9013 Q285.5063,363.0575 286.0688,363.3544 L286.0688,366.0731 Q285.4438,365.495 284.85,365.2294 Q284.2563,364.9481 283.6313,364.9481 Q282.2875,364.9481 281.6,366.0263 Q280.9125,367.0888 280.9125,369.1825 Q280.9125,371.2763 281.6,372.3544 Q282.2875,373.4169 283.6313,373.4169 Q284.2563,373.4169 284.85,373.1513 Q285.4438,372.87 286.0688,372.2919 L286.0688,375.0106 Z " fill="#000000"></path><text fill="#000000" font-family="sans-serif" font-size="14" lengthAdjust="spacing" textLength="83" x="300.9" y="374.2167">Department</text><line style="stroke:#181818;stroke-width:0.5;" x1="252" x2="403" y1="385.37" y2="385.37"></line><ellipse cx="262" cy="399.0184" fill="none" rx="3" ry="3" style="stroke:#038048;stroke-width:1.0;"></ellipse><text fill="#000000" font-family="sans-serif" font-size="14" lengthAdjust="spacing" textLength="88" x="271" y="402.3651">Name: string</text><ellipse cx="262" cy="415.3153" fill="none" rx="3" ry="3" style="stroke:#038048;stroke-width:1.0;"></ellipse><text fill="#000000" font-family="sans-serif" font-size="14" lengthAdjust="spacing" textLength="127" x="271" y="418.662">Description: string</text><line style="stroke:#181818;stroke-width:0.5;" x1="252" x2="403" y1="425.9638" y2="425.9638"></line></g><!--class Staff--><g id="elem_Staff"><rect codeline="23" fill="#F1F1F1" height="113.1875" id="Staff" rx="2.5" ry="2.5" style="stroke:#181818;stroke-width:0.5;" width="209" x="223" y="526.56"></rect><ellipse cx="308.25" cy="542.56" fill="#ADD1B2" rx="11" ry="11" style="stroke:#181818;stroke-width:1.0;"></ellipse><path d="M311.2188,548.2006 Q310.6406,548.4975 310,548.6381 Q309.3594,548.7944 308.6563,548.7944 Q306.1563,548.7944 304.8281,547.1538 Q303.5156,545.4975 303.5156,542.3725 Q303.5156,539.2475 304.8281,537.5913 Q306.1563,535.935 308.6563,535.935 Q309.3594,535.935 310,536.0913 Q310.6563,536.2475 311.2188,536.5444 L311.2188,539.2631 Q310.5938,538.685 310,538.4194 Q309.4063,538.1381 308.7813,538.1381 Q307.4375,538.1381 306.75,539.2163 Q306.0625,540.2788 306.0625,542.3725 Q306.0625,544.4663 306.75,545.5444 Q307.4375,546.6069 308.7813,546.6069 Q309.4063,546.6069 310,546.3413 Q310.5938,546.06 311.2188,545.4819 L311.2188,548.2006 Z " fill="#000000"></path><text fill="#000000" font-family="sans-serif" font-size="14" lengthAdjust="spacing" textLength="30" x="328.75" y="547.4067">Staff</text><line style="stroke:#181818;stroke-width:0.5;" x1="224" x2="431" y1="558.56" y2="558.56"></line><ellipse cx="234" cy="572.2084" fill="none" rx="3" ry="3" style="stroke:#038048;stroke-width:1.0;"></ellipse><text fill="#000000" font-family="sans-serif" font-size="14" lengthAdjust="spacing" textLength="88" x="243" y="575.5551">Name: string</text><ellipse cx="234" cy="588.5053" fill="none" rx="3" ry="3" style="stroke:#038048;stroke-width:1.0;"></ellipse><text fill="#000000" font-family="sans-serif" font-size="14" lengthAdjust="spacing" textLength="183" x="243" y="591.852">Contact Information: string</text><ellipse cx="234" cy="604.8022" fill="none" rx="3" ry="3" style="stroke:#038048;stroke-width:1.0;"></ellipse><text fill="#000000" font-family="sans-serif" font-size="14" lengthAdjust="spacing" textLength="103" x="243" y="608.1489">Position: string</text><ellipse cx="234" cy="621.0991" fill="none" rx="3" ry="3" style="stroke:#038048;stroke-width:1.0;"></ellipse><text fill="#000000" font-family="sans-serif" font-size="14" lengthAdjust="spacing" textLength="102" x="243" y="624.4457">Salary: decimal</text><line style="stroke:#181818;stroke-width:0.5;" x1="224" x2="431" y1="631.7475" y2="631.7475"></line></g><!--class ConstructionSite--><g id="elem_ConstructionSite"><rect codeline="30" fill="#F1F1F1" height="145.7813" id="ConstructionSite" rx="2.5" ry="2.5" style="stroke:#181818;stroke-width:0.5;" width="153" x="439" y="320.78"></rect><ellipse cx="456.7" cy="336.78" fill="#ADD1B2" rx="11" ry="11" style="stroke:#181818;stroke-width:1.0;"></ellipse><path d="M459.6688,342.4206 Q459.0906,342.7175 458.45,342.8581 Q457.8094,343.0144 457.1063,343.0144 Q454.6063,343.0144 453.2781,341.3738 Q451.9656,339.7175 451.9656,336.5925 Q451.9656,333.4675 453.2781,331.8113 Q454.6063,330.155 457.1063,330.155 Q457.8094,330.155 458.45,330.3113 Q459.1063,330.4675 459.6688,330.7644 L459.6688,333.4831 Q459.0438,332.905 458.45,332.6394 Q457.8563,332.3581 457.2313,332.3581 Q455.8875,332.3581 455.2,333.4363 Q454.5125,334.4988 454.5125,336.5925 Q454.5125,338.6863 455.2,339.7644 Q455.8875,340.8269 457.2313,340.8269 Q457.8563,340.8269 458.45,340.5613 Q459.0438,340.28 459.6688,339.7019 L459.6688,342.4206 Z " fill="#000000"></path><text fill="#000000" font-family="sans-serif" font-size="14" lengthAdjust="spacing" textLength="115" x="471.3" y="341.6267">ConstructionSite</text><line style="stroke:#181818;stroke-width:0.5;" x1="440" x2="591" y1="352.78" y2="352.78"></line><ellipse cx="450" cy="366.4284" fill="none" rx="3" ry="3" style="stroke:#038048;stroke-width:1.0;"></ellipse><text fill="#000000" font-family="sans-serif" font-size="14" lengthAdjust="spacing" textLength="88" x="459" y="369.7751">Name: string</text><ellipse cx="450" cy="382.7253" fill="none" rx="3" ry="3" style="stroke:#038048;stroke-width:1.0;"></ellipse><text fill="#000000" font-family="sans-serif" font-size="14" lengthAdjust="spacing" textLength="106" x="459" y="386.072">Location: string</text><ellipse cx="450" cy="399.0222" fill="none" rx="3" ry="3" style="stroke:#038048;stroke-width:1.0;"></ellipse><text fill="#000000" font-family="sans-serif" font-size="14" lengthAdjust="spacing" textLength="127" x="459" y="402.3689">Description: string</text><ellipse cx="450" cy="415.3191" fill="none" rx="3" ry="3" style="stroke:#038048;stroke-width:1.0;"></ellipse><text fill="#000000" font-family="sans-serif" font-size="14" lengthAdjust="spacing" textLength="113" x="459" y="418.6657">Budget: decimal</text><ellipse cx="450" cy="431.6159" fill="none" rx="3" ry="3" style="stroke:#038048;stroke-width:1.0;"></ellipse><text fill="#000000" font-family="sans-serif" font-size="14" lengthAdjust="spacing" textLength="109" x="459" y="434.9626">Start Date: date</text><ellipse cx="450" cy="447.9128" fill="none" rx="3" ry="3" style="stroke:#038048;stroke-width:1.0;"></ellipse><text fill="#000000" font-family="sans-serif" font-size="14" lengthAdjust="spacing" textLength="104" x="459" y="451.2595">End Date: date</text><line style="stroke:#181818;stroke-width:0.5;" x1="440" x2="591" y1="458.5613" y2="458.5613"></line></g><!--link Company to Branch--><g id="link_Company_Branch"><path codeline="39" d="M327.5,104.18 C327.5,123.03 327.5,144.64 327.5,163.49 " fill="none" id="Company-Branch" style="stroke:#181818;stroke-width:1.0;"></path><text fill="#000000" font-family="sans-serif" font-size="13" lengthAdjust="spacing" textLength="8" x="318.9625" y="123.8124">1</text><text fill="#000000" font-family="sans-serif" font-size="13" lengthAdjust="spacing" textLength="23" x="302.9547" y="152.9944">0..*</text></g><!--link Branch to Manager--><g id="link_Branch_Manager"><path codeline="40" d="M258.47,261.16 C221.9,289.9 178.59,326.04 148.32,353.15 " fill="none" id="Branch-Manager" style="stroke:#181818;stroke-width:1.0;"></path><text fill="#000000" font-family="sans-serif" font-size="13" lengthAdjust="spacing" textLength="8" x="240.6566" y="280.8044">1</text><text fill="#000000" font-family="sans-serif" font-size="13" lengthAdjust="spacing" textLength="8" x="145.7558" y="342.2751">1</text></g><!--link Manager to Branch--><g id="link_Manager_Branch"><path codeline="45" d="M170.51,353.15 C205.7,326.04 249.45,289.9 282,261.16 " fill="none" id="Manager-Branch" style="stroke:#181818;stroke-width:1.0;"></path><text fill="#000000" font-family="sans-serif" font-size="13" lengthAdjust="spacing" textLength="8" x="171.621" y="342.2751">1</text><text fill="#000000" font-family="sans-serif" font-size="13" lengthAdjust="spacing" textLength="23" x="251.3406" y="280.8044">0..*</text></g><!--link Branch to ConstructionSite--><g id="link_Branch_ConstructionSite"><path codeline="41" d="M365.98,260.92 C387.02,282.4 413.65,308.05 438.65,330.98 " fill="none" id="Branch-ConstructionSite" style="stroke:#181818;stroke-width:1.0;"></path><text fill="#000000" font-family="sans-serif" font-size="13" lengthAdjust="spacing" textLength="8" x="362.8288" y="280.8831">1</text><text fill="#000000" font-family="sans-serif" font-size="13" lengthAdjust="spacing" textLength="23" x="408.0574" y="322.0206">0..*</text></g><!--link ConstructionSite to Branch--><g id="link_ConstructionSite_Branch"><path codeline="42" d="M452.96,320.35 C432.6,300.43 410.08,279.32 389.73,261.16 " fill="none" id="ConstructionSite-Branch" style="stroke:#181818;stroke-width:1.0;"></path><text fill="#000000" font-family="sans-serif" font-size="13" lengthAdjust="spacing" textLength="23" x="448.0952" y="309.72">0..*</text><text fill="#000000" font-family="sans-serif" font-size="13" lengthAdjust="spacing" textLength="23" x="373.5468" y="280.8044">0..*</text></g><!--link Branch to Department--><g id="link_Branch_Department"><path codeline="43" d="M327.5,260.92 C327.5,289.67 327.5,325.87 327.5,353.05 " fill="none" id="Branch-Department" style="stroke:#181818;stroke-width:1.0;"></path><text fill="#000000" font-family="sans-serif" font-size="13" lengthAdjust="spacing" textLength="8" x="318.9375" y="280.8831">1</text><text fill="#000000" font-family="sans-serif" font-size="13" lengthAdjust="spacing" textLength="23" x="302.5953" y="342.1585">0..*</text></g><!--link Department to Staff--><g id="link_Department_Staff"><path codeline="44" d="M327.5,434.43 C327.5,461.09 327.5,496.58 327.5,526.1 " fill="none" id="Department-Staff" style="stroke:#181818;stroke-width:1.0;"></path><text fill="#000000" font-family="sans-serif" font-size="13" lengthAdjust="spacing" textLength="23" x="302.7391" y="453.8974">0..*</text><text fill="#000000" font-family="sans-serif" font-size="13" lengthAdjust="spacing" textLength="23" x="303.0984" y="515.3075">0..*</text></g><!--SRC=[bL91JiCm4Bpx5QiSGQtWsXjjE5G2X9GNhEnDi1JRaRqzL8Y_isaJ4b9BX8ijptXdTZtMBQO4X-0wz6VuL03tR-Xe1ucZzKr_VZ8cKafpw10yesOu-Zf4Xso3_w6_bD8NqNr4hp_ocYz1_wvQA_gA7XkAUTLL2YLr6DcHvxn8IKb7s-MBAyQw_h-vqEyXsILMOOlnl0D3sZfi9nlHabidtHTKbcdz8-Qw5tX_CWtnvDIRipm3bCYYQMJjiMTlveZqC_wCuh60pGQAX-tshXYYLKF28oVR4C-IkLOjfr8tOmuN_pAwSbEGQfRfZSGbCZN-czmStm00]--></g></svg>